<?xml version="1.0"?>
<svg xmlns="http://www.w3.org/2000/svg" id="Layer_1" enable-background="new 0 0 512 512" height="512px" viewBox="0 0 512 512" width="512px"><path d="m392 432h-272.021c-66.156 0-119.979-53.823-119.979-119.979v-164.021c0-66.168 53.832-120 120-120h90c11.046 0 20 8.954 20 20s-8.954 20-20 20h-90c-44.112 0-80 35.888-80 80v164.021c0 44.1 35.879 79.979 79.979 79.979h272.021c44.112 0 80-35.888 80-80v-27c0-11.046 8.954-20 20-20s20 8.954 20 20v27c0 66.168-53.832 120-120 120zm-109.858-173.858 1.808-1.808c9.733-9.734 24.529-12.164 36.818-6.045 18.274 9.098 38.014 13.711 58.659 13.71h.128c35.108 0 68.176-13.518 93.119-38.067 25.019-24.625 38.983-57.525 39.32-92.64.342-35.64-13.211-69.143-38.165-94.337-24.88-25.121-58.203-38.955-93.829-38.955-35.383 0-68.659 13.922-93.696 39.2-25.012 25.253-38.611 58.632-38.299 93.991l-.005 110.808c0 8.089 4.872 15.382 12.346 18.479 2.475 1.025 5.073 1.523 7.65 1.523 5.204-.001 10.32-2.033 14.146-5.859zm5.859-48.767.004-76.274c0-.064 0-.128-.001-.193-.236-24.642 9.252-47.924 26.719-65.56 17.468-17.636 40.651-27.348 65.277-27.348 24.869 0 48.099 9.625 65.409 27.103 17.383 17.552 26.825 40.921 26.586 65.805-.482 50.239-41.945 91.095-92.461 91.092-.028 0-.062 0-.088 0-14.421 0-28.166-3.202-40.851-9.518-10.197-5.077-21.156-7.546-32.028-7.546-6.272.001-12.515.822-18.566 2.439zm83.999 282.625c0-11.046-8.954-20-20-20h-192c-11.046 0-20 8.954-20 20s8.954 20 20 20h192c11.046 0 20-8.954 20-20z" fill="#FFFFFF"/></svg>
