<svg width="805" height="750" viewBox="0 0 805 750" fill="none" xmlns="http://www.w3.org/2000/svg">
<g clip-path="url(#clip0)">
<mask id="path-1-outside-1" maskUnits="userSpaceOnUse" x="-6.00061" y="14.663" width="816" height="721" fill="black">
<rect fill="white" x="-6.00061" y="14.663" width="816" height="721"/>
<path d="M203.286 382.381C174.722 390.225 151.684 399.333 141.659 406.75C138.66 408.969 135.08 410.045 131.528 410.045C126.717 410.045 121.953 408.071 118.73 404.282C113.128 397.694 114.313 388.119 121.374 382.894C139.634 369.388 174.757 358.475 194.066 353.174C202.713 350.794 211.786 355.412 214.332 363.478C216.878 371.544 211.932 380.007 203.286 382.381ZM424.307 482.626C432.686 522.755 424.545 559.385 400.767 588.557C379.813 614.264 348.269 632.056 311.946 638.653C301.889 640.479 291.819 641.383 281.892 641.383C255.97 641.383 230.986 635.229 209.464 623.303C175.689 604.586 153.409 573.478 145.031 533.349L144.867 532.562C143.426 525.577 147.363 518.591 154.35 515.739C166.263 510.873 179.813 506.122 194.619 501.618C199.295 500.195 204.408 500.816 208.541 503.306C264.789 537.226 314.862 528.129 353.353 477.005C356.18 473.251 360.67 470.886 365.577 470.566C381.107 469.56 395.581 469.223 408.592 469.563C416.225 469.763 422.69 474.873 424.153 481.863L424.311 482.616L424.307 482.626ZM394.117 499.906C388.135 499.972 381.873 500.171 375.366 500.505C346.469 536.015 311.063 554.077 272.552 554.081C248.497 554.083 223.239 547.039 197.583 532.796C191.419 534.765 185.532 536.772 179.963 538.804C198.518 599.085 256.814 617.647 305.706 608.77C354.604 599.89 401.159 562.289 394.117 499.906ZM309.569 363.077C339.204 360.351 364.226 360.733 376.496 364.097C378.034 364.52 379.582 364.719 381.107 364.719C388.162 364.719 394.667 360.42 396.757 353.789C399.3 345.723 394.353 337.262 385.704 334.888C364.473 329.064 330.837 330.525 306.361 332.78C297.389 333.604 290.836 341.058 291.721 349.424C292.607 357.791 300.612 363.904 309.569 363.077ZM501.66 168.853C502.182 168.898 502.699 168.922 503.211 168.922C511.533 168.922 518.643 163.011 519.441 155.127C520.286 146.756 513.698 139.33 504.723 138.542C475.077 135.936 450.595 131.102 439.238 125.609C431.231 121.738 421.382 124.654 417.237 132.12C413.088 139.582 416.212 148.77 424.215 152.64C444.903 162.642 481.618 167.092 501.66 168.853ZM614.513 168.922C615.026 168.922 615.543 168.898 616.063 168.853C640.554 166.701 673.871 162.139 693.514 152.637C701.517 148.767 704.638 139.577 700.489 132.115C696.338 124.654 686.489 121.743 678.486 125.609C667.136 131.1 642.656 135.934 613 138.542C604.028 139.33 597.437 146.754 598.283 155.127C599.079 163.011 606.189 168.922 614.513 168.922ZM525.726 465.913C547.941 572.325 467.119 683.073 333.55 729.246C331.887 729.821 330.135 730.137 328.363 730.188C324.756 730.288 321.14 730.339 317.564 730.339C179.961 730.339 65.9443 657.071 44.2935 553.354L0.538595 343.774C-3.81187 322.939 18.0747 303.763 69.4189 283.424C111.123 266.904 167.739 251.694 228.841 240.598C289.943 229.501 348.538 223.757 393.843 224.501C449.616 225.382 477.619 235.499 481.97 256.332L525.726 465.913ZM493.686 471.732L450.229 263.583C446.143 260.671 428.243 254.693 383.175 254.894C341.587 255.153 288.991 260.689 235.081 270.481C181.171 280.273 130.191 293.549 91.5375 307.864C49.6668 323.371 35.4947 335.251 32.8778 339.385L76.3335 547.535C95.3403 638.59 199.596 702.339 324.715 699.818C441.727 658.368 512.695 562.788 493.686 471.732ZM724.123 33.279C679.806 24.4988 621.116 19.663 558.865 19.663C496.613 19.663 437.923 24.4971 393.606 33.279C339.041 44.089 313.627 59.0109 313.627 80.2384V173.623C313.627 182.031 320.934 188.846 329.948 188.846C338.963 188.846 346.269 182.031 346.269 173.623V81.6964C349.682 78.1055 366.027 68.97 410.306 61.2131C451.179 54.0533 503.94 50.1105 558.865 50.1105C613.791 50.1105 666.55 54.0533 707.425 61.2131C751.704 68.97 768.049 78.1055 771.462 81.6964V293.75C771.462 379.234 696.936 454.893 586.013 482.021C577.294 484.154 572.078 492.475 574.365 500.606C576.287 507.445 582.901 511.973 590.142 511.973C591.511 511.973 592.904 511.81 594.293 511.472C654.177 496.826 705.896 468.822 743.859 430.489C783.273 390.691 804.105 343.409 804.105 293.75V80.2384C804.102 59.0109 778.688 44.089 724.123 33.279ZM635.212 387.407C635.877 387.407 636.546 387.37 637.214 387.292C652.67 385.509 666.943 383.261 679.638 380.609C687.091 379.051 692.39 372.879 692.39 365.755V364.988C692.39 325.037 677.478 291.051 649.268 266.707C620.372 241.771 579.751 229.207 537.853 232.26C528.865 232.913 522.148 240.236 522.848 248.618C523.548 257 531.39 263.287 540.386 262.612C573.268 260.222 604.862 269.864 627.102 289.056C645.766 305.161 656.741 327.246 659.214 353.409C653.333 354.412 647.148 355.332 640.696 356.164C614.707 334.488 587.239 322.44 558.949 320.334C549.972 319.675 542.098 325.92 541.38 334.299C540.664 342.68 547.366 350.016 556.352 350.686C579.051 352.375 601.775 363.299 623.898 383.154C626.955 385.9 631.019 387.407 635.212 387.407Z"/>
</mask>
<path d="M203.286 382.381C174.722 390.225 151.684 399.333 141.659 406.75C138.66 408.969 135.08 410.045 131.528 410.045C126.717 410.045 121.953 408.071 118.73 404.282C113.128 397.694 114.313 388.119 121.374 382.894C139.634 369.388 174.757 358.475 194.066 353.174C202.713 350.794 211.786 355.412 214.332 363.478C216.878 371.544 211.932 380.007 203.286 382.381ZM424.307 482.626C432.686 522.755 424.545 559.385 400.767 588.557C379.813 614.264 348.269 632.056 311.946 638.653C301.889 640.479 291.819 641.383 281.892 641.383C255.97 641.383 230.986 635.229 209.464 623.303C175.689 604.586 153.409 573.478 145.031 533.349L144.867 532.562C143.426 525.577 147.363 518.591 154.35 515.739C166.263 510.873 179.813 506.122 194.619 501.618C199.295 500.195 204.408 500.816 208.541 503.306C264.789 537.226 314.862 528.129 353.353 477.005C356.18 473.251 360.67 470.886 365.577 470.566C381.107 469.56 395.581 469.223 408.592 469.563C416.225 469.763 422.69 474.873 424.153 481.863L424.311 482.616L424.307 482.626ZM394.117 499.906C388.135 499.972 381.873 500.171 375.366 500.505C346.469 536.015 311.063 554.077 272.552 554.081C248.497 554.083 223.239 547.039 197.583 532.796C191.419 534.765 185.532 536.772 179.963 538.804C198.518 599.085 256.814 617.647 305.706 608.77C354.604 599.89 401.159 562.289 394.117 499.906ZM309.569 363.077C339.204 360.351 364.226 360.733 376.496 364.097C378.034 364.52 379.582 364.719 381.107 364.719C388.162 364.719 394.667 360.42 396.757 353.789C399.3 345.723 394.353 337.262 385.704 334.888C364.473 329.064 330.837 330.525 306.361 332.78C297.389 333.604 290.836 341.058 291.721 349.424C292.607 357.791 300.612 363.904 309.569 363.077ZM501.66 168.853C502.182 168.898 502.699 168.922 503.211 168.922C511.533 168.922 518.643 163.011 519.441 155.127C520.286 146.756 513.698 139.33 504.723 138.542C475.077 135.936 450.595 131.102 439.238 125.609C431.231 121.738 421.382 124.654 417.237 132.12C413.088 139.582 416.212 148.77 424.215 152.64C444.903 162.642 481.618 167.092 501.66 168.853ZM614.513 168.922C615.026 168.922 615.543 168.898 616.063 168.853C640.554 166.701 673.871 162.139 693.514 152.637C701.517 148.767 704.638 139.577 700.489 132.115C696.338 124.654 686.489 121.743 678.486 125.609C667.136 131.1 642.656 135.934 613 138.542C604.028 139.33 597.437 146.754 598.283 155.127C599.079 163.011 606.189 168.922 614.513 168.922ZM525.726 465.913C547.941 572.325 467.119 683.073 333.55 729.246C331.887 729.821 330.135 730.137 328.363 730.188C324.756 730.288 321.14 730.339 317.564 730.339C179.961 730.339 65.9443 657.071 44.2935 553.354L0.538595 343.774C-3.81187 322.939 18.0747 303.763 69.4189 283.424C111.123 266.904 167.739 251.694 228.841 240.598C289.943 229.501 348.538 223.757 393.843 224.501C449.616 225.382 477.619 235.499 481.97 256.332L525.726 465.913ZM493.686 471.732L450.229 263.583C446.143 260.671 428.243 254.693 383.175 254.894C341.587 255.153 288.991 260.689 235.081 270.481C181.171 280.273 130.191 293.549 91.5375 307.864C49.6668 323.371 35.4947 335.251 32.8778 339.385L76.3335 547.535C95.3403 638.59 199.596 702.339 324.715 699.818C441.727 658.368 512.695 562.788 493.686 471.732ZM724.123 33.279C679.806 24.4988 621.116 19.663 558.865 19.663C496.613 19.663 437.923 24.4971 393.606 33.279C339.041 44.089 313.627 59.0109 313.627 80.2384V173.623C313.627 182.031 320.934 188.846 329.948 188.846C338.963 188.846 346.269 182.031 346.269 173.623V81.6964C349.682 78.1055 366.027 68.97 410.306 61.2131C451.179 54.0533 503.94 50.1105 558.865 50.1105C613.791 50.1105 666.55 54.0533 707.425 61.2131C751.704 68.97 768.049 78.1055 771.462 81.6964V293.75C771.462 379.234 696.936 454.893 586.013 482.021C577.294 484.154 572.078 492.475 574.365 500.606C576.287 507.445 582.901 511.973 590.142 511.973C591.511 511.973 592.904 511.81 594.293 511.472C654.177 496.826 705.896 468.822 743.859 430.489C783.273 390.691 804.105 343.409 804.105 293.75V80.2384C804.102 59.0109 778.688 44.089 724.123 33.279ZM635.212 387.407C635.877 387.407 636.546 387.37 637.214 387.292C652.67 385.509 666.943 383.261 679.638 380.609C687.091 379.051 692.39 372.879 692.39 365.755V364.988C692.39 325.037 677.478 291.051 649.268 266.707C620.372 241.771 579.751 229.207 537.853 232.26C528.865 232.913 522.148 240.236 522.848 248.618C523.548 257 531.39 263.287 540.386 262.612C573.268 260.222 604.862 269.864 627.102 289.056C645.766 305.161 656.741 327.246 659.214 353.409C653.333 354.412 647.148 355.332 640.696 356.164C614.707 334.488 587.239 322.44 558.949 320.334C549.972 319.675 542.098 325.92 541.38 334.299C540.664 342.68 547.366 350.016 556.352 350.686C579.051 352.375 601.775 363.299 623.898 383.154C626.955 385.9 631.019 387.407 635.212 387.407Z" fill="white"/>
<path d="M203.286 382.381C174.722 390.225 151.684 399.333 141.659 406.75C138.66 408.969 135.08 410.045 131.528 410.045C126.717 410.045 121.953 408.071 118.73 404.282C113.128 397.694 114.313 388.119 121.374 382.894C139.634 369.388 174.757 358.475 194.066 353.174C202.713 350.794 211.786 355.412 214.332 363.478C216.878 371.544 211.932 380.007 203.286 382.381ZM424.307 482.626C432.686 522.755 424.545 559.385 400.767 588.557C379.813 614.264 348.269 632.056 311.946 638.653C301.889 640.479 291.819 641.383 281.892 641.383C255.97 641.383 230.986 635.229 209.464 623.303C175.689 604.586 153.409 573.478 145.031 533.349L144.867 532.562C143.426 525.577 147.363 518.591 154.35 515.739C166.263 510.873 179.813 506.122 194.619 501.618C199.295 500.195 204.408 500.816 208.541 503.306C264.789 537.226 314.862 528.129 353.353 477.005C356.18 473.251 360.67 470.886 365.577 470.566C381.107 469.56 395.581 469.223 408.592 469.563C416.225 469.763 422.69 474.873 424.153 481.863L424.311 482.616L424.307 482.626ZM394.117 499.906C388.135 499.972 381.873 500.171 375.366 500.505C346.469 536.015 311.063 554.077 272.552 554.081C248.497 554.083 223.239 547.039 197.583 532.796C191.419 534.765 185.532 536.772 179.963 538.804C198.518 599.085 256.814 617.647 305.706 608.77C354.604 599.89 401.159 562.289 394.117 499.906ZM309.569 363.077C339.204 360.351 364.226 360.733 376.496 364.097C378.034 364.52 379.582 364.719 381.107 364.719C388.162 364.719 394.667 360.42 396.757 353.789C399.3 345.723 394.353 337.262 385.704 334.888C364.473 329.064 330.837 330.525 306.361 332.78C297.389 333.604 290.836 341.058 291.721 349.424C292.607 357.791 300.612 363.904 309.569 363.077ZM501.66 168.853C502.182 168.898 502.699 168.922 503.211 168.922C511.533 168.922 518.643 163.011 519.441 155.127C520.286 146.756 513.698 139.33 504.723 138.542C475.077 135.936 450.595 131.102 439.238 125.609C431.231 121.738 421.382 124.654 417.237 132.12C413.088 139.582 416.212 148.77 424.215 152.64C444.903 162.642 481.618 167.092 501.66 168.853ZM614.513 168.922C615.026 168.922 615.543 168.898 616.063 168.853C640.554 166.701 673.871 162.139 693.514 152.637C701.517 148.767 704.638 139.577 700.489 132.115C696.338 124.654 686.489 121.743 678.486 125.609C667.136 131.1 642.656 135.934 613 138.542C604.028 139.33 597.437 146.754 598.283 155.127C599.079 163.011 606.189 168.922 614.513 168.922ZM525.726 465.913C547.941 572.325 467.119 683.073 333.55 729.246C331.887 729.821 330.135 730.137 328.363 730.188C324.756 730.288 321.14 730.339 317.564 730.339C179.961 730.339 65.9443 657.071 44.2935 553.354L0.538595 343.774C-3.81187 322.939 18.0747 303.763 69.4189 283.424C111.123 266.904 167.739 251.694 228.841 240.598C289.943 229.501 348.538 223.757 393.843 224.501C449.616 225.382 477.619 235.499 481.97 256.332L525.726 465.913ZM493.686 471.732L450.229 263.583C446.143 260.671 428.243 254.693 383.175 254.894C341.587 255.153 288.991 260.689 235.081 270.481C181.171 280.273 130.191 293.549 91.5375 307.864C49.6668 323.371 35.4947 335.251 32.8778 339.385L76.3335 547.535C95.3403 638.59 199.596 702.339 324.715 699.818C441.727 658.368 512.695 562.788 493.686 471.732ZM724.123 33.279C679.806 24.4988 621.116 19.663 558.865 19.663C496.613 19.663 437.923 24.4971 393.606 33.279C339.041 44.089 313.627 59.0109 313.627 80.2384V173.623C313.627 182.031 320.934 188.846 329.948 188.846C338.963 188.846 346.269 182.031 346.269 173.623V81.6964C349.682 78.1055 366.027 68.97 410.306 61.2131C451.179 54.0533 503.94 50.1105 558.865 50.1105C613.791 50.1105 666.55 54.0533 707.425 61.2131C751.704 68.97 768.049 78.1055 771.462 81.6964V293.75C771.462 379.234 696.936 454.893 586.013 482.021C577.294 484.154 572.078 492.475 574.365 500.606C576.287 507.445 582.901 511.973 590.142 511.973C591.511 511.973 592.904 511.81 594.293 511.472C654.177 496.826 705.896 468.822 743.859 430.489C783.273 390.691 804.105 343.409 804.105 293.75V80.2384C804.102 59.0109 778.688 44.089 724.123 33.279ZM635.212 387.407C635.877 387.407 636.546 387.37 637.214 387.292C652.67 385.509 666.943 383.261 679.638 380.609C687.091 379.051 692.39 372.879 692.39 365.755V364.988C692.39 325.037 677.478 291.051 649.268 266.707C620.372 241.771 579.751 229.207 537.853 232.26C528.865 232.913 522.148 240.236 522.848 248.618C523.548 257 531.39 263.287 540.386 262.612C573.268 260.222 604.862 269.864 627.102 289.056C645.766 305.161 656.741 327.246 659.214 353.409C653.333 354.412 647.148 355.332 640.696 356.164C614.707 334.488 587.239 322.44 558.949 320.334C549.972 319.675 542.098 325.92 541.38 334.299C540.664 342.68 547.366 350.016 556.352 350.686C579.051 352.375 601.775 363.299 623.898 383.154C626.955 385.9 631.019 387.407 635.212 387.407Z" stroke="white" stroke-width="10" mask="url(#path-1-outside-1)"/>
</g>
<defs>
<clipPath id="clip0">
<rect width="804.102" height="750" fill="white"/>
</clipPath>
</defs>
</svg>
