<?xml version="1.0"?>
<svg xmlns="http://www.w3.org/2000/svg" xmlns:xlink="http://www.w3.org/1999/xlink" version="1.1" id="Capa_1" x="0px" y="0px" viewBox="0 0 443.41 443.41" style="enable-background:new 0 0 443.41 443.41;" xml:space="preserve" width="512px" height="512px"><g><path id="XMLID_113_" d="M112.099,226.069c-15.751,4.637-28.455,10.022-33.983,14.407c-1.654,1.312-3.628,1.948-5.587,1.948  c-2.653,0-5.28-1.167-7.057-3.407c-3.089-3.895-2.436-9.556,1.458-12.645c10.069-7.985,29.437-14.437,40.085-17.571  c4.768-1.407,9.771,1.323,11.175,6.092C119.594,219.662,116.867,224.665,112.099,226.069z M233.978,285.335  c4.62,23.725,0.131,45.381-12.981,62.628c-11.555,15.198-28.949,25.717-48.979,29.617c-5.546,1.08-11.099,1.614-16.573,1.614  c-14.294,0-28.071-3.638-39.939-10.689c-18.625-11.066-30.911-29.457-35.531-53.182l-0.09-0.465c-0.795-4.13,1.376-8.26,5.229-9.946  c6.569-2.877,14.041-5.686,22.206-8.349c2.578-0.841,5.398-0.474,7.677,0.998c31.017,20.054,58.629,14.676,79.854-15.549  c1.559-2.22,4.035-3.618,6.741-3.807c8.564-0.595,16.545-0.794,23.72-0.593c4.209,0.118,7.774,3.139,8.581,7.272l0.087,0.445  L233.978,285.335z M217.33,295.551c-3.299,0.039-6.752,0.157-10.34,0.354c-15.935,20.994-35.459,31.673-56.695,31.675  c-13.265,0.001-27.193-4.163-41.341-12.584c-3.399,1.164-6.645,2.351-9.716,3.552c10.232,35.639,42.378,46.613,69.339,41.365  C195.541,354.663,221.213,332.433,217.33,295.551z M170.707,214.656c16.342-1.612,30.14-1.386,36.906,0.603  c0.848,0.25,1.702,0.368,2.543,0.368c3.89,0,7.477-2.542,8.63-6.462c1.402-4.769-1.326-9.771-6.095-11.175  c-11.708-3.443-30.256-2.579-43.753-1.246c-4.947,0.487-8.561,4.894-8.073,9.84C161.354,211.531,165.768,215.145,170.707,214.656z   M276.633,99.828c0.288,0.027,0.573,0.041,0.855,0.041c4.589,0,8.51-3.495,8.95-8.156c0.466-4.949-3.167-9.339-8.116-9.805  c-16.348-1.541-29.848-4.399-36.111-7.646c-4.415-2.289-9.846-0.565-12.132,3.849c-2.288,4.412-0.565,9.844,3.848,12.132  C245.335,96.156,265.581,98.787,276.633,99.828z M338.864,99.869c0.283,0,0.568-0.014,0.855-0.041  c13.505-1.272,31.877-3.969,42.709-9.587c4.413-2.288,6.134-7.721,3.846-12.133c-2.289-4.411-7.72-6.132-12.133-3.846  c-6.259,3.246-19.758,6.104-36.111,7.646c-4.948,0.466-8.582,4.855-8.116,9.805C330.353,96.374,334.274,99.869,338.864,99.869z   M289.904,275.454c12.25,62.912-32.318,128.388-105.973,155.686c-0.917,0.34-1.883,0.527-2.86,0.557  c-1.989,0.059-3.983,0.089-5.955,0.089c-75.879,0-138.752-43.317-150.691-104.636L0.297,203.244  c-2.399-12.318,9.67-23.655,37.983-35.68c22.997-9.767,54.217-18.759,87.911-25.319c33.694-6.561,66.005-9.957,90.988-9.517  c30.755,0.521,46.197,6.502,48.596,18.819L289.904,275.454z M272.236,278.894l-23.964-123.06  c-2.253-1.722-12.124-5.256-36.976-5.137c-22.933,0.153-51.936,3.426-81.664,9.215s-57.84,13.638-79.155,22.101  c-23.089,9.168-30.904,16.192-32.347,18.636l23.963,123.061c10.481,53.833,67.971,91.522,136.966,90.032  C243.584,389.236,282.718,332.728,272.236,278.894z M399.307,19.675c-24.438-5.191-56.802-8.05-91.129-8.05  c-34.328,0-66.692,2.858-91.13,8.05c-30.089,6.391-44.103,15.213-44.103,27.763v55.21c0,4.971,4.029,9,9,9s9-4.029,9-9V48.3  c1.882-2.123,10.895-7.524,35.312-12.11c22.539-4.233,51.633-6.564,81.921-6.564c30.288,0,59.381,2.331,81.921,6.564  c24.417,4.586,33.43,9.987,35.312,12.11v125.369c0,50.539-41.096,95.27-102.263,111.308c-4.808,1.261-7.684,6.181-6.423,10.988  c1.06,4.043,4.707,6.72,8.7,6.72c0.755,0,1.523-0.096,2.289-0.296c33.022-8.659,61.542-25.215,82.476-47.878  c21.734-23.529,33.222-51.483,33.222-80.842V47.438C443.41,34.888,429.396,26.066,399.307,19.675z M350.278,229.04  c0.367,0,0.736-0.022,1.104-0.068c8.523-1.054,16.394-2.383,23.394-3.951c4.11-0.921,7.032-4.57,7.032-8.782v-0.453  c0-23.62-8.223-43.713-23.779-58.105c-15.934-14.743-38.334-22.171-61.438-20.366c-4.956,0.386-8.66,4.716-8.274,9.671  c0.386,4.956,4.71,8.673,9.671,8.274c18.132-1.413,35.554,4.287,47.818,15.634c10.292,9.521,16.344,22.578,17.708,38.046  c-3.243,0.593-6.654,1.137-10.212,1.629c-14.331-12.815-29.478-19.938-45.078-21.183c-4.95-0.39-9.292,3.302-9.688,8.256  c-0.395,4.955,3.301,9.292,8.256,9.688c12.517,0.999,25.048,7.457,37.247,19.196C345.725,228.149,347.966,229.04,350.278,229.04z" data-original="#000000" class="active-path" data-old_color="#000000" fill="#FFFFFF"/></g> </svg>
