<?xml version="1.0"?>
<svg xmlns="http://www.w3.org/2000/svg" xmlns:xlink="http://www.w3.org/1999/xlink" version="1.1" id="Capa_1" x="0px" y="0px" viewBox="0 0 512 512" style="enable-background:new 0 0 512 512;" xml:space="preserve" width="512px" height="512px" class=""><g><g>
	<g>
		<path d="M492,471.75h-20v-46c0-11.046-8.954-20-20-20c-11.046,0-20,8.954-20,20v46H80v-33h281c11.046,0,20-8.954,20-20    c0-11.046-8.954-20-20-20H80v-28.748c17.601-3.109,37.064-15.472,46.879-27.047c1.094-1.29,4.414-5.206,11.938-5.206    c0.032,0,0.063,0,0.096,0c5.137,0.022,9.097,1.772,12.106,5.348c14.324,17.021,29.785,25.652,45.955,25.652h0.742    c16.322,0,31.957-8.679,46.471-25.795c1.134-1.336,4.605-5.392,12.316-5.211c5.029,0.125,8.896,1.876,11.823,5.354    c14.324,17.021,29.786,25.652,45.956,25.652h0.742c16.321,0,31.956-8.679,46.47-25.795c2.912-3.435,6.766-5.138,11.781-5.207    c0.104-0.001,0.207-0.002,0.31-0.002c5.076,0,9.021,1.752,12.05,5.353c12.599,14.97,34.201,25.836,51.364,25.836h0.742    c0.093,0,0.186,0,0.278-0.002C464.226,368.568,503,349.347,503,309.25c0-29.773-11.824-57.375-33.293-77.718    c-20.949-19.85-48.901-30.782-78.707-30.782H276v-45.94c23.278-8.256,40-30.487,40-56.56c0-8.296-2.366-23.288-22.831-57.542    C282.864,23.459,272.693,9.21,272.266,8.612C268.511,3.364,262.453,0.25,256,0.25s-12.511,3.114-16.266,8.363    c-0.428,0.598-10.599,14.847-20.903,32.096C198.366,74.962,196,89.954,196,98.25c0,26.073,16.722,48.303,40,56.56v45.94H121    c-62.243,0-111,47.659-111,108.5c0,24.005,10.637,42.863,30,53.319V471.75H20c-11.046,0-20,8.954-20,20c0,11.046,8.954,20,20,20    h472c11.046,0,20-8.954,20-20C512,480.704,503.046,471.75,492,471.75z M253.266,61.062c0.913-1.527,1.828-3.031,2.734-4.503    c0.863,1.401,1.733,2.832,2.604,4.285c16.843,28.12,17.38,36.955,17.396,37.423c-0.009,11.021-8.978,19.984-20,19.984    c-11.028,0-20-8.972-20-19.976C236.01,97.917,236.438,89.198,253.266,61.062z M71.258,330.75c-0.056,0-6.117-0.276-11.643-3.055    C54.86,325.304,50,321.242,50,309.25c0-39.051,30.523-68.5,71-68.5h270c40.374,0,72,30.089,72,68.5    c0,3.987-0.963,9.183-8.476,14.014c-5.898,3.793-13.41,5.588-16.954,5.671H437c-4.432,0-15.101-4.868-20.76-11.591    c-10.83-12.872-26.287-19.831-43.517-19.591c-16.536,0.229-31.358,7.094-41.736,19.333c-7.293,8.6-13.027,11.665-15.962,11.665    h-0.742c-2.653,0-8.266-2.987-15.351-11.407c-10.285-12.223-25.002-19.179-41.437-19.586c-17.318-0.43-32.883,6.435-43.816,19.329    c-7.293,8.6-13.027,11.665-15.963,11.665h-0.742c-2.652,0-8.265-2.987-15.351-11.408c-10.571-12.56-25.678-19.518-42.537-19.592    c-0.091,0-0.179,0-0.27,0c-16.801,0-31.868,6.861-42.446,19.336c-5.822,6.864-19.647,13.629-24.37,13.662H71.258z" data-original="#000000" class="active-path" data-old_color="#000000" fill="#FFFFFF"/>
	</g>
</g></g> </svg>
