<?xml version="1.0"?>
<svg xmlns="http://www.w3.org/2000/svg" viewBox="0 0 64 64" width="512px" height="512px" class=""><g><g id="Layer_26" data-name="Layer 26"><path d="M59,49.59V20a5,5,0,0,0-5-5H47.86A16,16,0,0,0,32.1,1H32A16,16,0,0,0,16.14,15H10a5,5,0,0,0-5,5V49.59l-3.71,3.7A1,1,0,0,0,1,54v4a5,5,0,0,0,5,5H58a5,5,0,0,0,5-5V54a1,1,0,0,0-.29-.71ZM57.59,51l2,2H4.41l2-2ZM21.45,7.83a15.58,15.58,0,0,0,3.67,2.55A20.05,20.05,0,0,0,24.05,16h-6A13.86,13.86,0,0,1,21.45,7.83ZM46,16H40a20.05,20.05,0,0,0-1.07-5.62,15.58,15.58,0,0,0,3.67-2.55A13.86,13.86,0,0,1,46,16Zm-21.9,2a20.05,20.05,0,0,0,1.07,5.62,15.58,15.58,0,0,0-3.67,2.55A13.86,13.86,0,0,1,18.05,18Zm7,11.58a18.58,18.58,0,0,1-3.29-4.87A13.07,13.07,0,0,1,31,24.05Zm2-5.53a13.07,13.07,0,0,1,3.29.66A18.26,18.26,0,0,1,33,29.55Zm0-2V18h5A18.34,18.34,0,0,1,37,22.85,15.58,15.58,0,0,0,33,22.05ZM33,16V12a15.58,15.58,0,0,0,4-.8A18.34,18.34,0,0,1,38,16ZM33,10V4.45a18.26,18.26,0,0,1,3.29,4.84A13.07,13.07,0,0,1,33,10Zm-2,0a13.07,13.07,0,0,1-3.29-.66A18.58,18.58,0,0,1,31,4.42Zm0,2V16H26.05A18.34,18.34,0,0,1,27,11.15,15.58,15.58,0,0,0,31,12ZM31,18v4.05a15.58,15.58,0,0,0-4,.8A18.34,18.34,0,0,1,26.05,18Zm-5.13,7.48a20.41,20.41,0,0,0,3.52,5.27,14,14,0,0,1-6.52-3.16A13.13,13.13,0,0,1,25.87,25.48Zm12.26,0a13.13,13.13,0,0,1,3,2.11,14,14,0,0,1-6.52,3.16A20.41,20.41,0,0,0,38.13,25.48Zm4.42.69a15.58,15.58,0,0,0-3.67-2.55A20.05,20.05,0,0,0,40,18h6A13.86,13.86,0,0,1,42.55,26.17ZM38.13,8.52a20.41,20.41,0,0,0-3.52-5.27,14,14,0,0,1,6.52,3.16A13.13,13.13,0,0,1,38.13,8.52Zm-12.26,0a13.13,13.13,0,0,1-3-2.11,14,14,0,0,1,6.52-3.16A20.41,20.41,0,0,0,25.87,8.52ZM32,33A16,16,0,0,0,47.47,21H53V45H11V21h5.53A16,16,0,0,0,32,33ZM10,17h6a16.52,16.52,0,0,0,.14,2H10a1,1,0,0,0-1,1V46a1,1,0,0,0,1,1H54a1,1,0,0,0,1-1V20a1,1,0,0,0-1-1H47.86A16.52,16.52,0,0,0,48,17h6a3,3,0,0,1,3,3V49H7V20A3,3,0,0,1,10,17ZM58,61H6a3,3,0,0,1-3-3V55H61v3A3,3,0,0,1,58,61Z" data-original="#000000" class="active-path" data-old_color="#000000" fill="#FFFFFF"/><path d="M19.71,43a1,1,0,0,0,1.12-.41L22,40.8l1.17,1.75A1,1,0,0,0,24,43a1,1,0,0,0,.29,0A1,1,0,0,0,25,42V36H23v2.7l-.17-.25a1,1,0,0,0-1.66,0L21,38.7V36H19v6A1,1,0,0,0,19.71,43Z" data-original="#000000" class="active-path" data-old_color="#000000" fill="#FFFFFF"/><path d="M27.71,43a1,1,0,0,0,1.12-.41L30,40.8l1.17,1.75A1,1,0,0,0,32,43a1,1,0,0,0,.29,0A1,1,0,0,0,33,42V36H31v2.7l-.17-.25a1,1,0,0,0-1.66,0L29,38.7V36H27v6A1,1,0,0,0,27.71,43Z" data-original="#000000" class="active-path" data-old_color="#000000" fill="#FFFFFF"/><path d="M35.71,43a1,1,0,0,0,1.12-.41L38,40.8l1.17,1.75A1,1,0,0,0,40,43a1,1,0,0,0,.29,0A1,1,0,0,0,41,42V36H39v2.7l-.17-.25a1,1,0,0,0-1.66,0L37,38.7V36H35v6A1,1,0,0,0,35.71,43Z" data-original="#000000" class="active-path" data-old_color="#000000" fill="#FFFFFF"/><rect x="43" y="41" width="2" height="2" data-original="#000000" class="active-path" data-old_color="#000000" fill="#FFFFFF"/><path d="M50,10h5v2a1,1,0,0,0,.58.91A1,1,0,0,0,56,13a1,1,0,0,0,.64-.23l6-5a1,1,0,0,0,0-1.54l-6-5A1,1,0,0,0,55,2V4H50a1,1,0,0,0-1,1V9A1,1,0,0,0,50,10Zm1-4h5a1,1,0,0,0,1-1V4.13L60.44,7,57,9.87V9a1,1,0,0,0-1-1H51Z" data-original="#000000" class="active-path" data-old_color="#000000" fill="#FFFFFF"/><path d="M7.36,12.77A1,1,0,0,0,8,13a1,1,0,0,0,.42-.09A1,1,0,0,0,9,12V10h5a1,1,0,0,0,1-1V5a1,1,0,0,0-1-1H9V2a1,1,0,0,0-1.64-.77l-6,5a1,1,0,0,0,0,1.54ZM7,4.13V5A1,1,0,0,0,8,6h5V8H8A1,1,0,0,0,7,9v.87L3.56,7Z" data-original="#000000" class="active-path" data-old_color="#000000" fill="#FFFFFF"/></g></g> </svg>
